<mxfile host="app.diagrams.net" agent="Mozilla/5.0 (Windows NT 10.0; Win64; x64) AppleWebKit/537.36 (KHTML, like Gecko) Chrome/129.0.0.0 Safari/537.36" version="24.7.16">
  <diagram name="Page-1" id="3VSgrb0Na6WSJXG1U79C">
    <mxGraphModel dx="1050" dy="522" grid="1" gridSize="10" guides="1" tooltips="1" connect="1" arrows="1" fold="1" page="1" pageScale="1" pageWidth="850" pageHeight="1100" math="0" shadow="0">
      <root>
        <mxCell id="0" />
        <mxCell id="1" parent="0" />
        <mxCell id="WNkIsL-zDbhGc8C9zV-j-1" value="User" style="shape=umlActor;verticalLabelPosition=bottom;verticalAlign=top;html=1;" vertex="1" parent="1">
          <mxGeometry x="100" y="230" width="30" height="60" as="geometry" />
        </mxCell>
        <mxCell id="WNkIsL-zDbhGc8C9zV-j-2" value="System" style="shape=umlActor;verticalLabelPosition=bottom;verticalAlign=top;html=1;" vertex="1" parent="1">
          <mxGeometry x="660" y="230" width="30" height="60" as="geometry" />
        </mxCell>
        <mxCell id="WNkIsL-zDbhGc8C9zV-j-5" value="Login" style="ellipse;whiteSpace=wrap;html=1;" vertex="1" parent="1">
          <mxGeometry x="320" y="80" width="140" height="70" as="geometry" />
        </mxCell>
        <mxCell id="WNkIsL-zDbhGc8C9zV-j-7" value="Check balance" style="ellipse;whiteSpace=wrap;html=1;" vertex="1" parent="1">
          <mxGeometry x="320" y="162" width="140" height="70" as="geometry" />
        </mxCell>
        <mxCell id="WNkIsL-zDbhGc8C9zV-j-8" value="Withdraw money" style="ellipse;whiteSpace=wrap;html=1;" vertex="1" parent="1">
          <mxGeometry x="320" y="242" width="140" height="70" as="geometry" />
        </mxCell>
        <mxCell id="WNkIsL-zDbhGc8C9zV-j-9" value="Deposit money" style="ellipse;whiteSpace=wrap;html=1;" vertex="1" parent="1">
          <mxGeometry x="320" y="320" width="140" height="70" as="geometry" />
        </mxCell>
        <mxCell id="WNkIsL-zDbhGc8C9zV-j-10" value="Transfer money" style="ellipse;whiteSpace=wrap;html=1;" vertex="1" parent="1">
          <mxGeometry x="320" y="400" width="140" height="70" as="geometry" />
        </mxCell>
        <mxCell id="WNkIsL-zDbhGc8C9zV-j-11" value="" style="endArrow=open;endFill=1;endSize=12;html=1;rounded=0;entryX=0;entryY=0.5;entryDx=0;entryDy=0;exitX=1;exitY=0.3333333333333333;exitDx=0;exitDy=0;exitPerimeter=0;" edge="1" parent="1" source="WNkIsL-zDbhGc8C9zV-j-1" target="WNkIsL-zDbhGc8C9zV-j-5">
          <mxGeometry width="160" relative="1" as="geometry">
            <mxPoint x="140" y="260" as="sourcePoint" />
            <mxPoint x="270" y="100" as="targetPoint" />
          </mxGeometry>
        </mxCell>
        <mxCell id="WNkIsL-zDbhGc8C9zV-j-12" value="" style="endArrow=open;endFill=1;endSize=12;html=1;rounded=0;entryX=0;entryY=0.5;entryDx=0;entryDy=0;exitX=1;exitY=0.3333333333333333;exitDx=0;exitDy=0;exitPerimeter=0;" edge="1" parent="1" source="WNkIsL-zDbhGc8C9zV-j-1" target="WNkIsL-zDbhGc8C9zV-j-7">
          <mxGeometry width="160" relative="1" as="geometry">
            <mxPoint x="140" y="260" as="sourcePoint" />
            <mxPoint x="330" y="125" as="targetPoint" />
          </mxGeometry>
        </mxCell>
        <mxCell id="WNkIsL-zDbhGc8C9zV-j-13" value="" style="endArrow=open;endFill=1;endSize=12;html=1;rounded=0;entryX=0;entryY=0.5;entryDx=0;entryDy=0;" edge="1" parent="1" target="WNkIsL-zDbhGc8C9zV-j-8">
          <mxGeometry width="160" relative="1" as="geometry">
            <mxPoint x="130" y="250" as="sourcePoint" />
            <mxPoint x="330" y="207" as="targetPoint" />
          </mxGeometry>
        </mxCell>
        <mxCell id="WNkIsL-zDbhGc8C9zV-j-14" value="" style="endArrow=open;endFill=1;endSize=12;html=1;rounded=0;entryX=0;entryY=0.5;entryDx=0;entryDy=0;" edge="1" parent="1" target="WNkIsL-zDbhGc8C9zV-j-9">
          <mxGeometry width="160" relative="1" as="geometry">
            <mxPoint x="130" y="250" as="sourcePoint" />
            <mxPoint x="330" y="287" as="targetPoint" />
          </mxGeometry>
        </mxCell>
        <mxCell id="WNkIsL-zDbhGc8C9zV-j-15" value="" style="endArrow=open;endFill=1;endSize=12;html=1;rounded=0;entryX=0;entryY=0.5;entryDx=0;entryDy=0;" edge="1" parent="1" target="WNkIsL-zDbhGc8C9zV-j-10">
          <mxGeometry width="160" relative="1" as="geometry">
            <mxPoint x="130" y="250" as="sourcePoint" />
            <mxPoint x="330" y="365" as="targetPoint" />
          </mxGeometry>
        </mxCell>
        <mxCell id="WNkIsL-zDbhGc8C9zV-j-16" value="" style="endArrow=open;endFill=1;endSize=12;html=1;rounded=0;entryX=0;entryY=0.3333333333333333;entryDx=0;entryDy=0;entryPerimeter=0;exitX=1;exitY=0.5;exitDx=0;exitDy=0;" edge="1" parent="1" source="WNkIsL-zDbhGc8C9zV-j-8" target="WNkIsL-zDbhGc8C9zV-j-2">
          <mxGeometry width="160" relative="1" as="geometry">
            <mxPoint x="140" y="260" as="sourcePoint" />
            <mxPoint x="330" y="445" as="targetPoint" />
          </mxGeometry>
        </mxCell>
        <mxCell id="WNkIsL-zDbhGc8C9zV-j-17" value="" style="endArrow=open;endFill=1;endSize=12;html=1;rounded=0;exitX=1;exitY=0.5;exitDx=0;exitDy=0;" edge="1" parent="1" source="WNkIsL-zDbhGc8C9zV-j-7">
          <mxGeometry width="160" relative="1" as="geometry">
            <mxPoint x="470" y="287" as="sourcePoint" />
            <mxPoint x="660" y="250" as="targetPoint" />
          </mxGeometry>
        </mxCell>
        <mxCell id="WNkIsL-zDbhGc8C9zV-j-18" value="" style="endArrow=open;endFill=1;endSize=12;html=1;rounded=0;exitX=1;exitY=0.5;exitDx=0;exitDy=0;" edge="1" parent="1" source="WNkIsL-zDbhGc8C9zV-j-5">
          <mxGeometry width="160" relative="1" as="geometry">
            <mxPoint x="470" y="207" as="sourcePoint" />
            <mxPoint x="660" y="250" as="targetPoint" />
          </mxGeometry>
        </mxCell>
        <mxCell id="WNkIsL-zDbhGc8C9zV-j-19" value="" style="endArrow=open;endFill=1;endSize=12;html=1;rounded=0;exitX=1;exitY=0.5;exitDx=0;exitDy=0;" edge="1" parent="1" source="WNkIsL-zDbhGc8C9zV-j-9">
          <mxGeometry width="160" relative="1" as="geometry">
            <mxPoint x="470" y="125" as="sourcePoint" />
            <mxPoint x="660" y="250" as="targetPoint" />
          </mxGeometry>
        </mxCell>
        <mxCell id="WNkIsL-zDbhGc8C9zV-j-20" value="" style="endArrow=open;endFill=1;endSize=12;html=1;rounded=0;exitX=1;exitY=0.5;exitDx=0;exitDy=0;" edge="1" parent="1" source="WNkIsL-zDbhGc8C9zV-j-10">
          <mxGeometry width="160" relative="1" as="geometry">
            <mxPoint x="470" y="365" as="sourcePoint" />
            <mxPoint x="660" y="250" as="targetPoint" />
          </mxGeometry>
        </mxCell>
      </root>
    </mxGraphModel>
  </diagram>
</mxfile>
